<svg width="44" height="65" viewBox="0 0 44 65" fill="none" xmlns="http://www.w3.org/2000/svg">
<path d="M37.91 30.4379V41.3069C37.91 41.3069 38.015 44.0419 35.085 44.0419C32.016 44.0419 31.96 41.3069 31.96 41.3069V34.8909C31.96 34.6509 31.624 32.9819 29.641 32.9819C27.016 32.9819 26.971 34.8589 26.971 34.8589V54.0799C26.971 54.0799 27 55.9429 24.507 55.9429C22 55.9429 22 53.9599 22 53.9599V40.0159C22 40.0159 22 37.0709 18.195 37.0709C14.141 37.0709 14.228 40.1959 14.228 40.1959V43.9239C14.228 43.9239 14.107 46.8689 9.54 46.8689C4.973 46.8689 4.912 42.3599 4.912 42.3599V29.9379C3.168 28.9759 0 26.6709 0 26.6709V56.0029C0 56.0029 2.988 64.9999 22 64.9999C41.012 64.9999 44 56.3049 44 56.3049V26.6709C41.062 29.4999 37.91 30.4379 37.91 30.4379Z" fill="white"/>
<path fill-rule="evenodd" clip-rule="evenodd" d="M22 0C1.688 0 0 19.875 0 19.875V22.937C8.438 29.188 22 29 22 29C22 29 35.562 29.188 44 22.938V19.876C44 19.875 42.312 0 22 0ZM22 25C10.25 25 7.688 22.625 7.688 22.625C13.938 19.75 22 19.875 22 19.875C22 19.875 30.062 19.75 36.312 22.625C36.312 22.625 33.75 25 22 25ZM4.312 15.563C4.312 15.563 12.438 12.625 22 12.625C31.562 12.625 39.688 15.562 39.688 15.562C35.125 2.624 22 3.062 22 3.062C22 3.062 8.875 2.625 4.312 15.563Z" fill="white"/>
</svg>
