<svg width="66" height="66" viewBox="0 0 66 66" fill="none" xmlns="http://www.w3.org/2000/svg">
<path d="M33 66C51.2254 66 66 51.2254 66 33C66 14.7746 51.2254 0 33 0C14.7746 0 0 14.7746 0 33C0 51.2254 14.7746 66 33 66Z" fill="#63A63E"/>
<path d="M49.6412 21.066C49.25 20.6772 48.6184 20.6772 48.2272 21.066L29.7882 39.504C29.397 39.8927 28.7654 39.8927 28.3742 39.504L20.2342 31.365C19.843 30.9762 19.2114 30.9762 18.8202 31.365L15.2852 34.9C14.8965 35.2911 14.8965 35.9228 15.2852 36.314L28.3742 49.404C28.7654 49.7927 29.397 49.7927 29.7882 49.404L33.3242 45.868L34.7382 44.454L53.1762 26.016C53.5649 25.6248 53.5649 24.9931 53.1762 24.602L49.6412 21.066V21.066Z" fill="white"/>
</svg>
