<svg width="59" height="73" viewBox="0 0 59 73" fill="none" xmlns="http://www.w3.org/2000/svg">
<path fill-rule="evenodd" clip-rule="evenodd" d="M58.3401 21.5451C57.7737 20.7923 56.8862 20.3497 55.9441 20.3501H17.2741L14.7991 12.9651H3.05811C1.40125 12.9651 0.0581055 14.3082 0.0581055 15.9651C0.0581055 17.6219 1.40125 18.9651 3.05811 18.9651H10.4821L23.9821 59.2501H49.1411C50.798 59.2501 52.1411 57.9069 52.1411 56.2501C52.1411 54.5932 50.798 53.2501 49.1411 53.2501H28.2991L26.5731 48.1011H49.6931C51.0311 48.101 52.2075 47.2151 52.5771 45.9291L58.8271 24.1791C59.0867 23.2733 58.9064 22.2982 58.3401 21.5451ZM50.5591 31.2261H45.7491V26.3501H51.9601L50.5591 31.2261ZM32.9421 26.3501V31.2251H39.7491V26.3501H32.9421ZM39.7491 37.2261V42.1011H32.9421V37.2261H39.7491ZM26.9421 31.2251V26.3501H19.2851L20.9191 31.2251H26.9421ZM22.9291 37.2261H26.9421V42.1011H24.5631L22.9291 37.2261ZM45.7491 37.2261V42.1011H47.4341L48.8351 37.2261H45.7491Z" fill="white"/>
<path d="M27.406 72.875C30.5988 72.875 33.187 70.2867 33.187 67.094C33.187 63.9012 30.5988 61.313 27.406 61.313C24.2132 61.313 21.625 63.9012 21.625 67.094C21.625 70.2867 24.2132 72.875 27.406 72.875Z" fill="white"/>
<path d="M44.844 72.875C48.0367 72.875 50.625 70.2867 50.625 67.094C50.625 63.9012 48.0367 61.313 44.844 61.313C41.6512 61.313 39.063 63.9012 39.063 67.094C39.063 70.2867 41.6512 72.875 44.844 72.875Z" fill="white"/>
<path d="M29.3351 10.6991L36.8821 16.1911C37.318 16.5093 37.8646 16.6365 38.3961 16.5433C38.9277 16.4501 39.3985 16.1446 39.7001 15.6971C40.3461 14.7611 40.1301 13.4651 39.2201 12.8021L36.8471 11.0761L46.2831 5.98605L50.9111 18.0001H55.2581L49.2141 2.30905C49.0072 1.76572 48.5794 1.33574 48.0371 1.12605C47.4998 0.920788 46.8996 0.960606 46.3941 1.23505L33.1461 8.38205L30.1241 6.18305C29.2553 5.54916 28.0397 5.72205 27.3821 6.57305L18.9011 17.3711C18.7309 17.5555 18.5939 17.7679 18.4961 17.9991H23.6021L29.3351 10.6991Z" fill="white"/>
</svg>
