<svg width="70" height="70" viewBox="0 0 70 70" fill="none" xmlns="http://www.w3.org/2000/svg">
<mask id="mask0" mask-type="alpha" maskUnits="userSpaceOnUse" x="0" y="0" width="70" height="70">
<rect width="70" height="70" fill="#C4C4C4"/>
</mask>
<g mask="url(#mask0)">
<rect x="22.2129" y="-23" width="100" height="30" transform="rotate(45 22.2129 -23)" fill="#EE3643"/>
<path d="M34.4523 19.1096L41.382 12.1799L42.3719 13.1699L39.5011 20.0995L39.5506 20.149L44.4508 15.2488L45.3418 16.1397L38.4121 23.0694L37.4222 22.0794L40.293 15.1498L40.2435 15.1003L35.3433 20.0005L34.4523 19.1096ZM39.7984 24.4557L46.7281 17.526L50.0939 20.8919L49.4009 21.5848L46.9261 19.1099L44.6492 21.3868L46.8271 23.5647L46.1341 24.2577L43.9562 22.0798L41.3824 24.6537L43.8572 27.1285L43.1643 27.8215L39.7984 24.4557ZM44.8986 29.5558L50.6898 21.4878L51.5808 22.3787L47.126 28.6154L47.1755 28.6649L52.3232 25.695L53.2142 26.586L50.2443 31.7337L50.2938 31.7832L56.5305 27.3285L57.4215 28.2194L49.3534 34.0106L48.2644 32.9217L51.3036 27.6452L51.264 27.6056L45.9875 30.6448L44.8986 29.5558Z" fill="white"/>
</g>
</svg>
