<svg width="107" height="17" viewBox="0 0 107 17" fill="none" xmlns="http://www.w3.org/2000/svg">
<path fill-rule="evenodd" clip-rule="evenodd" d="M103.069 1.87826V16.6696H100.956V1.87826H97.1992V0.234783H106.825V1.87826H103.069ZM94.9336 10.577C94.5657 11.0387 94.104 11.3674 93.5484 11.563C92.9927 11.7587 92.3314 11.8565 91.5644 11.8565C91.2044 11.8565 90.7975 11.833 90.3436 11.7861C89.8897 11.7391 89.514 11.6843 89.2166 11.6217V16.6696H87.1036V0.469565C87.6984 0.297391 88.297 0.176087 88.8997 0.105652C89.5023 0.0352174 90.1557 0 90.8601 0C91.7992 0 92.5975 0.0978261 93.2549 0.293478C93.9123 0.48913 94.4444 0.813913 94.8514 1.26783C95.2584 1.72174 95.5557 2.32435 95.7436 3.07565C95.9314 3.82696 96.0253 4.75826 96.0253 5.86957C96.0253 7.01217 95.9353 7.96696 95.7553 8.73391C95.5753 9.50087 95.3014 10.1152 94.9336 10.577ZM93.7362 3.75652C93.6188 3.19304 93.4349 2.74696 93.1844 2.41826C92.934 2.08957 92.617 1.8587 92.2336 1.72565C91.8501 1.59261 91.3923 1.52609 90.8601 1.52609H89.2166V10.213H90.8601C91.3923 10.213 91.8501 10.1465 92.2336 10.0135C92.617 9.88043 92.934 9.64957 93.1844 9.32087C93.4349 8.99217 93.6188 8.54609 93.7362 7.98261C93.8536 7.41913 93.9123 6.71478 93.9123 5.86957C93.9123 5.02435 93.8536 4.32 93.7362 3.75652ZM81.821 12.4435H77.1253L76.0688 16.6696H73.9557L77.947 0.234783H80.9992L84.9905 16.6696H82.8775L81.821 12.4435ZM79.5201 2.58261H79.4262L77.4775 10.8H81.4688L79.5201 2.58261ZM69.3775 4.46087H69.2601L65.8557 14.5565H63.7427L60.3383 4.46087H60.221L59.5166 16.6696H57.4036L58.3427 0.234783H60.9253L64.7523 11.5043H64.8462L68.6731 0.234783H71.2557L72.1949 16.6696H70.0818L69.3775 4.46087ZM53.6001 15.1435C53.1618 15.7852 52.6336 16.2391 52.0153 16.5052C51.397 16.7713 50.6888 16.9043 49.8905 16.9043C49.0923 16.9043 48.384 16.7713 47.7657 16.5052C47.1475 16.2391 46.6192 15.7852 46.181 15.1435C45.7427 14.5017 45.4101 13.637 45.1831 12.5491C44.9562 11.4613 44.8427 10.0957 44.8427 8.45217C44.8427 6.8087 44.9562 5.44304 45.1831 4.35522C45.4101 3.26739 45.7427 2.40261 46.181 1.76087C46.6192 1.11913 47.1475 0.665217 47.7657 0.39913C48.384 0.133043 49.0923 0 49.8905 0C50.6888 0 51.397 0.133043 52.0153 0.39913C52.6336 0.665217 53.1618 1.11913 53.6001 1.76087C54.0383 2.40261 54.371 3.26739 54.5979 4.35522C54.8249 5.44304 54.9383 6.8087 54.9383 8.45217C54.9383 10.0957 54.8249 11.4613 54.5979 12.5491C54.371 13.637 54.0383 14.5017 53.6001 15.1435ZM52.5788 4.97739C52.4144 4.06957 52.1992 3.34957 51.9331 2.81739C51.667 2.28522 51.354 1.91739 50.994 1.71391C50.634 1.51043 50.2662 1.4087 49.8905 1.4087C49.5149 1.4087 49.147 1.51043 48.787 1.71391C48.427 1.91739 48.114 2.28522 47.8479 2.81739C47.5818 3.34957 47.3666 4.06957 47.2023 4.97739C47.0379 5.88522 46.9557 7.04348 46.9557 8.45217C46.9557 9.86087 47.0379 11.0191 47.2023 11.927C47.3666 12.8348 47.5818 13.5548 47.8479 14.087C48.114 14.6191 48.427 14.987 48.787 15.1904C49.147 15.3939 49.5149 15.4957 49.8905 15.4957C50.2662 15.4957 50.634 15.3939 50.994 15.1904C51.354 14.987 51.667 14.6191 51.9331 14.087C52.1992 13.5548 52.4144 12.8348 52.5788 11.927C52.7431 11.0191 52.8253 9.86087 52.8253 8.45217C52.8253 7.04348 52.7431 5.88522 52.5788 4.97739ZM39.9123 9.15652H34.9818V16.6696H32.8688V0.234783H34.9818V7.51304H39.9123V0.234783H42.0253V16.6696H39.9123V9.15652ZM28.7609 16.6696L25.8261 9.62609L22.8913 16.6696H20.7783L24.3 8.21739L21.1304 0.234783H23.2435L25.8261 6.8087L28.4087 0.234783H30.5217L27.3522 8.21739L30.8739 16.6696H28.7609ZM11.5043 0.234783H19.487V1.87826H13.6174V7.27826H18.7826V8.92174H13.6174V15.0261H19.487V16.6696H11.5043V0.234783ZM5.86957 16.6696H3.75652V1.87826H0V0.234783H9.62609V1.87826H5.86957V16.6696Z" fill="white"/>
</svg>
