<svg width="137" height="22" viewBox="0 0 137 22" fill="none" xmlns="http://www.w3.org/2000/svg">
<path fill-rule="evenodd" clip-rule="evenodd" d="M131.699 2.4V21.3H128.999V2.4H124.199V0.299997H136.499V2.4H131.699ZM121.304 13.515C120.834 14.105 120.244 14.525 119.534 14.775C118.824 15.025 117.979 15.15 116.999 15.15C116.539 15.15 116.019 15.12 115.439 15.06C114.859 15 114.379 14.93 113.999 14.85V21.3H111.299V0.6C112.059 0.38 112.824 0.225 113.594 0.135C114.364 0.045 115.199 0 116.099 0C117.299 0 118.319 0.125 119.159 0.375C119.999 0.625 120.679 1.04 121.199 1.62C121.719 2.2 122.099 2.97 122.339 3.93C122.579 4.89 122.699 6.08 122.699 7.5C122.699 8.96 122.584 10.18 122.354 11.16C122.124 12.14 121.774 12.925 121.304 13.515ZM119.774 4.8C119.624 4.08 119.389 3.51 119.069 3.09C118.749 2.67 118.344 2.375 117.854 2.205C117.364 2.035 116.779 1.95 116.099 1.95H113.999V13.05H116.099C116.779 13.05 117.364 12.965 117.854 12.795C118.344 12.625 118.749 12.33 119.069 11.91C119.389 11.49 119.624 10.92 119.774 10.2C119.924 9.48 119.999 8.58 119.999 7.5C119.999 6.42 119.924 5.52 119.774 4.8ZM104.549 15.9H98.549L97.199 21.3H94.499L99.599 0.299997H103.499L108.599 21.3H105.899L104.549 15.9ZM101.609 3.3H101.489L98.999 13.8H104.099L101.609 3.3ZM88.649 5.7H88.499L84.149 18.6H81.449L77.099 5.7H76.949L76.049 21.3H73.349L74.549 0.299997H77.849L82.739 14.7H82.859L87.749 0.299997H91.049L92.249 21.3H89.549L88.649 5.7ZM68.489 19.35C67.929 20.17 67.254 20.75 66.464 21.09C65.674 21.43 64.769 21.6 63.749 21.6C62.729 21.6 61.824 21.43 61.034 21.09C60.244 20.75 59.569 20.17 59.009 19.35C58.449 18.53 58.024 17.425 57.734 16.035C57.444 14.645 57.299 12.9 57.299 10.8C57.299 8.7 57.444 6.955 57.734 5.565C58.024 4.175 58.449 3.07 59.009 2.25C59.569 1.43 60.244 0.85 61.034 0.51C61.824 0.17 62.729 0 63.749 0C64.769 0 65.674 0.17 66.464 0.51C67.254 0.85 67.929 1.43 68.489 2.25C69.049 3.07 69.474 4.175 69.764 5.565C70.054 6.955 70.199 8.7 70.199 10.8C70.199 12.9 70.054 14.645 69.764 16.035C69.474 17.425 69.049 18.53 68.489 19.35ZM67.184 6.36C66.974 5.2 66.699 4.28 66.359 3.6C66.019 2.92 65.619 2.45 65.159 2.19C64.699 1.93 64.229 1.8 63.749 1.8C63.269 1.8 62.799 1.93 62.339 2.19C61.879 2.45 61.479 2.92 61.139 3.6C60.799 4.28 60.524 5.2 60.314 6.36C60.104 7.52 59.999 9 59.999 10.8C59.999 12.6 60.104 14.08 60.314 15.24C60.524 16.4 60.799 17.32 61.139 18C61.479 18.68 61.879 19.15 62.339 19.41C62.799 19.67 63.269 19.8 63.749 19.8C64.229 19.8 64.699 19.67 65.159 19.41C65.619 19.15 66.019 18.68 66.359 18C66.699 17.32 66.974 16.4 67.184 15.24C67.394 14.08 67.499 12.6 67.499 10.8C67.499 9 67.394 7.52 67.184 6.36ZM50.999 11.7H44.699V21.3H41.999V0.299997H44.699V9.6H50.999V0.299997H53.699V21.3H50.999V11.7ZM36.75 21.3L33 12.3L29.25 21.3H26.55L31.05 10.5L27 0.299997H29.7L33 8.7L36.3 0.299997H39L34.95 10.5L39.45 21.3H36.75ZM14.7 0.299997H24.9V2.4H17.4V9.3H24V11.4H17.4V19.2H24.9V21.3H14.7V0.299997ZM7.5 21.3H4.8V2.4H0V0.299997H12.3V2.4H7.5V21.3Z" fill="white"/>
</svg>
